<svg xmlns="http://www.w3.org/2000/svg" xmlns:xlink="http://www.w3.org/1999/xlink" viewBox="0 0 629.14 399.66"><defs><style>.cls-1{isolation:isolate;}.cls-2{fill:#6baedf;mix-blend-mode:lighten;}.cls-3{fill:#231f20;}.cls-4{fill:#c4161c;}.cls-5{fill:#fff156;mix-blend-mode:multiply;}.cls-6{mix-blend-mode:color-burn;fill:url(#linear-gradient);}</style><linearGradient id="linear-gradient" x1="-116.07" y1="190.93" x2="-260.69" y2="-117.72" gradientTransform="matrix(0.52, 0.13, 0, 0.31, 178.34, 89.43)" gradientUnits="userSpaceOnUse"><stop offset="0" stop-color="#ed3c24"/><stop offset="0.25" stop-color="#ed3f2b"/><stop offset="0.61" stop-color="#ed473e"/><stop offset="1" stop-color="#ed535a"/></linearGradient></defs><g class="cls-1"><g id="Layer_1" data-name="Layer 1"><rect class="cls-2" x="176.69" y="137.99" width="218" height="125.42" transform="matrix(0.97, -0.26, 0.26, 0.97, -50.02, 72.08)"/><path class="cls-3" d="M24.21,236.53l14.84-4,1.31,4.91a43.76,43.76,0,0,1,1,4.72l.26-.07s2.64-12.66,18-16.77C77.25,220.61,92.38,232.06,98,253c5.76,21.51-3.17,38.84-20.31,43.43a23.14,23.14,0,0,1-21.16-4.29l-.25.07s.89,2.32,1.82,5.77l7.61,28.41-16.25,4.35ZM71,283c9-2.39,14.34-12,10.75-25.36-3.45-12.87-12.34-19.45-21.93-16.88-8.45,2.26-14.67,10.76-10.65,25.76C51.93,277,60.2,285.92,71,283Z" transform="translate(-7.81 -8.7)"/><path class="cls-4" d="M101.47,215.82l16.24-4.35,10.74,40.09c2.21,8.23,5.75,13.26,13.81,11.1,11.76-3.16,15.4-15.66,12.17-27.73l-8.32-31.07,16.24-4.35,18.14,67.7-15.61,4.18-2.06-7.7a45.42,45.42,0,0,1-1-4.85l-.26.07a26,26,0,0,1-18.87,20.14c-13.94,3.73-24.59-1.24-29.54-19.69Z" transform="translate(-7.81 -8.7)"/><path class="cls-3" d="M191.5,254.58l19.08-45.94a58.1,58.1,0,0,1,3.83-7.71l-.07-.27a51.74,51.74,0,0,1-5.94,1.88l-27.5,7.37-3.84-14.34,55.51-14.87,2.46,9.15-19.09,46a50.77,50.77,0,0,1-3.95,7.75l.07.26a35.36,35.36,0,0,1,6-2l29.67-8,3.85,14.33-57.69,15.46Z" transform="translate(-7.81 -8.7)"/><path class="cls-3" d="M258.52,236.62l19.09-45.94a56.66,56.66,0,0,1,3.83-7.71l-.08-.27a50.83,50.83,0,0,1-5.94,1.88L247.92,192l-3.84-14.34,55.51-14.87,2.46,9.16L283,217.84a51.29,51.29,0,0,1-4,7.75l.07.26a35.36,35.36,0,0,1,6-2l29.68-7.95,3.84,14.33-57.69,15.46Z" transform="translate(-7.81 -8.7)"/><path class="cls-3" d="M379.88,139.52c18.8-5,32.71,6.46,37.51,24.38.53,2,1.36,6.6,1.36,6.6l-45,12.07c4.19,11.54,14.65,15.28,24.37,12.67,10.49-2.81,16.81-12.47,16.81-12.47l9.5,10.4a41.44,41.44,0,0,1-23.62,16.72c-21.62,5.79-39.39-6.81-44.54-26C350.66,163,360.43,144.73,379.88,139.52Zm19.79,23.72c-2.71-9.09-9.53-12.53-16.69-10.61-8.32,2.23-12.65,9.08-11.84,18.25Z" transform="translate(-7.81 -8.7)"/><rect class="cls-3" x="318.47" y="67.28" width="16.79" height="190.48" transform="translate(-38.74 81.43) rotate(-15)"/><rect class="cls-3" x="59.2" y="324.61" width="17.04" height="82.97" transform="translate(-100.25 21.3) rotate(-15)"/><path class="cls-3" d="M342.92,254.65l16.25-4.35,8.43,31.46c.85,3.2,1.22,5.57,1.22,5.57l.25-.07c1.52-7.12,7.67-15.9,19.05-18.95,14.45-3.87,24.66,1.48,29.29,18.75L428.65,329l-16.12,4.32L402.18,294.7c-2.12-7.93-5.61-12.75-13.92-10.52-8.57,2.29-13.71,9.7-14,18.29a30.57,30.57,0,0,0,1.24,8.71l8,29.93-16.24,4.35Z" transform="translate(-7.81 -8.7)"/><path class="cls-4" d="M427.29,259.46l16.24-4.35,10.35,38.63c2.13,7.93,5.61,12.75,13.67,10.59,11.77-3.15,15.52-15.26,12.4-26.9l-8-29.93,16.24-4.35,17.48,65.23-15.6,4.18-2-7.42a41.51,41.51,0,0,1-1-4.67l-.26.07c-1.38,7.63-7.87,16.64-19,19.62-13.94,3.74-24.53-1-29.29-18.74Z" transform="translate(-7.81 -8.7)"/><path class="cls-3" d="M506.08,238.35l15.61-4.18,2,7.55a41.63,41.63,0,0,1,.94,4.54l.26-.07c1.34-6.25,6.34-16.23,19.51-19.76,14.46-3.87,24.67,1.48,29.29,18.75L585,287.13l-16.11,4.32-10.35-38.63c-2.13-7.93-5.61-12.75-13.93-10.52-8.69,2.33-13.62,9.54-14,18a28.74,28.74,0,0,0,1.18,9l8,29.93-16.24,4.35Z" transform="translate(-7.81 -8.7)"/><path class="cls-3" d="M591,230.53l-8.44,2.26-3.47-12.92,8.83-2.36-5-18.8,15.86-4.25,5,18.8,14.84-4,3.46,12.92-14.84,4,6.79,25.32c2.88,10.74,11.73,10,16.21,8.82a15.11,15.11,0,0,0,2.87-1.05l3.8,14.2a28.57,28.57,0,0,1-4.88,1.72c-9.08,2.44-27.84,4.58-33.7-17.29Z" transform="translate(-7.81 -8.7)"/><circle class="cls-5" cx="488.85" cy="261.79" r="119.16"/><polygon class="cls-6" points="259.79 158.15 0 149.07 53.48 0 259.79 158.15"/></g></g></svg>