<svg xmlns="http://www.w3.org/2000/svg" xmlns:xlink="http://www.w3.org/1999/xlink" viewBox="0 0 629.14 422.9"><defs><style>.cls-1{isolation:isolate;}.cls-2{fill:#6baedf;mix-blend-mode:lighten;}.cls-3{fill:#231f20;}.cls-4{fill:#c4161c;}.cls-5{fill:#fff156;mix-blend-mode:multiply;}.cls-6{mix-blend-mode:color-burn;fill:url(#linear-gradient);}</style><linearGradient id="linear-gradient" x1="-116.07" y1="231.55" x2="-260.69" y2="-77.1" gradientTransform="matrix(0.52, 0.13, 0, 0.31, 178.47, 100.01)" gradientUnits="userSpaceOnUse"><stop offset="0" stop-color="#ed3c24"/><stop offset="0.25" stop-color="#ed3f2b"/><stop offset="0.61" stop-color="#ed473e"/><stop offset="1" stop-color="#ed535a"/></linearGradient></defs><g class="cls-1"><g id="Layer_1" data-name="Layer 1"><rect class="cls-2" x="176.69" y="178.6" width="218" height="125.42" transform="matrix(0.97, -0.26, 0.26, 0.97, -60.53, 56.08)"/><path class="cls-3" d="M24.21,277.14l14.84-4,1.31,4.91a43.87,43.87,0,0,1,1,4.71l.26-.07s2.64-12.65,18-16.77c17.65-4.73,32.78,6.73,38.4,27.7,5.76,21.5-3.17,38.83-20.31,43.42a23.12,23.12,0,0,1-21.16-4.28l-.25.06s.89,2.33,1.82,5.78L65.71,367l-16.25,4.36ZM71,323.66c9-2.4,14.34-12,10.75-25.36-3.45-12.88-12.34-19.46-21.93-16.89-8.45,2.27-14.67,10.76-10.65,25.76C51.93,317.66,60.2,326.54,71,323.66Z" transform="translate(-7.81 -26.08)"/><path class="cls-4" d="M101.47,256.44l16.24-4.35,10.74,40.08c2.21,8.23,5.75,13.26,13.81,11.1,11.76-3.15,15.4-15.65,12.17-27.73l-8.32-31.06,16.24-4.35,18.14,67.69L164.88,312l-2.06-7.7a46,46,0,0,1-1-4.85l-.26.07a25.94,25.94,0,0,1-18.87,20.13c-13.94,3.74-24.59-1.23-29.54-19.68Z" transform="translate(-7.81 -26.08)"/><path class="cls-3" d="M191.5,295.2l19.08-45.95a58.91,58.91,0,0,1,3.83-7.71l-.07-.26a50.86,50.86,0,0,1-5.94,1.87l-27.5,7.37-3.84-14.33,55.51-14.88,2.46,9.16-19.09,45.94a50.77,50.77,0,0,1-3.95,7.75l.07.27a34.62,34.62,0,0,1,6-2.05l29.67-7.95,3.85,14.34-57.69,15.45Z" transform="translate(-7.81 -26.08)"/><path class="cls-3" d="M258.52,277.24l19.09-45.94a57.22,57.22,0,0,1,3.83-7.72l-.08-.26a50,50,0,0,1-5.94,1.87l-27.5,7.37-3.84-14.33,55.51-14.88,2.46,9.16L283,258.46a51.45,51.45,0,0,1-4,7.74l.07.27a35.77,35.77,0,0,1,6-2.05l29.68-7.95,3.84,14.34-57.69,15.46Z" transform="translate(-7.81 -26.08)"/><path class="cls-3" d="M379.88,180.13c18.8-5,32.71,6.46,37.51,24.38.53,2,1.36,6.61,1.36,6.61l-45,12.06c4.19,11.54,14.65,15.28,24.37,12.68,10.49-2.81,16.81-12.47,16.81-12.47l9.5,10.4a41.4,41.4,0,0,1-23.62,16.71c-21.62,5.79-39.39-6.8-44.54-26.05C350.66,203.61,360.43,185.34,379.88,180.13Zm19.79,23.72c-2.71-9.09-9.53-12.52-16.69-10.6-8.32,2.22-12.65,9.07-11.84,18.25Z" transform="translate(-7.81 -26.08)"/><rect class="cls-3" x="323.12" y="143.21" width="16.79" height="154.55" transform="translate(-53.58 67.23) rotate(-15)"/><rect class="cls-3" x="59.2" y="365.22" width="17.04" height="82.97" transform="translate(-110.77 5.3) rotate(-15)"/><path class="cls-3" d="M342.92,295.27l16.25-4.36,8.43,31.47c.85,3.2,1.22,5.57,1.22,5.57l.25-.07c1.52-7.13,7.67-15.9,19.05-18.95,14.45-3.88,24.66,1.48,29.29,18.74l11.24,42L412.53,374l-10.35-38.63c-2.12-7.93-5.61-12.75-13.92-10.53-8.57,2.3-13.71,9.71-14,18.29a30.63,30.63,0,0,0,1.24,8.72l8,29.93-16.24,4.35Z" transform="translate(-7.81 -26.08)"/><path class="cls-4" d="M427.29,300.08l16.24-4.35,10.35,38.62c2.13,7.93,5.61,12.75,13.67,10.6,11.77-3.16,15.52-15.26,12.4-26.9l-8-29.93,16.24-4.36L505.65,349l-15.6,4.18-2-7.42a41.9,41.9,0,0,1-1-4.68l-.26.07c-1.38,7.64-7.87,16.65-19,19.63-13.94,3.73-24.53-1-29.29-18.75Z" transform="translate(-7.81 -26.08)"/><path class="cls-3" d="M506.08,279l15.61-4.18,2,7.54a41.53,41.53,0,0,1,.94,4.55l.26-.07c1.34-6.26,6.34-16.23,19.51-19.76,14.46-3.88,24.67,1.48,29.29,18.74l11.24,42-16.11,4.32-10.35-38.63c-2.13-7.93-5.61-12.76-13.93-10.53-8.69,2.33-13.62,9.55-14,18a28.77,28.77,0,0,0,1.18,9l8,29.92-16.24,4.36Z" transform="translate(-7.81 -26.08)"/><path class="cls-3" d="M591,271.14l-8.44,2.27-3.47-12.92,8.83-2.37-5-18.8,15.86-4.25,5,18.8,14.84-4,3.46,12.92-14.84,4,6.79,25.33c2.88,10.74,11.73,10,16.21,8.81a15.6,15.6,0,0,0,2.87-1l3.8,14.2a28.57,28.57,0,0,1-4.88,1.72c-9.08,2.43-27.84,4.58-33.7-17.29Z" transform="translate(-7.81 -26.08)"/><circle class="cls-5" cx="488.85" cy="285.02" r="119.16"/><polygon class="cls-6" points="259.79 181.39 0 172.31 53.48 23.24 259.79 181.39"/><path class="cls-3" d="M188.7,79.9a19.42,19.42,0,0,0,13.5,5.49c4.86,0,9.09-2.43,9.09-7.2,0-9.9-24.39-7.47-24.39-22.23,0-8.1,7.29-12.51,15.48-12.51,9.54,0,14,4.95,14,4.95l-2.79,4.68s-3.87-4.14-11.34-4.14c-4.59,0-9,2-9,7,0,10,24.39,7.29,24.39,22.23,0,7.38-6.39,12.69-15.48,12.69-11,0-16.74-6.57-16.74-6.57Z" transform="translate(-7.81 -26.08)"/><path class="cls-3" d="M230.64,50.2H224.7V45.07h6V32h6v13H248.1V50.2H236.76V72.7c0,10.62,6.75,12,10.17,12a10.51,10.51,0,0,0,2.07-.18V90a16.11,16.11,0,0,1-2.61.18c-5.22,0-15.75-1.71-15.75-16.83Z" transform="translate(-7.81 -26.08)"/><path class="cls-3" d="M283.11,61.81h2.52V60.64c0-8.73-4.77-11.7-11.25-11.7a22,22,0,0,0-12.78,4.32l-2.88-4.68s5.94-5.13,16.11-5.13c10.89,0,16.92,6,16.92,17.37v29H285.9v-5a35.78,35.78,0,0,1,.18-3.78h-.18a16.35,16.35,0,0,1-15.12,9.81c-7.56,0-15.39-4.41-15.39-13.41C255.39,62.17,275.28,61.81,283.11,61.81ZM271.77,85.66c8.64,0,13.86-9,13.86-16.83v-2H283c-7.11,0-21.33.27-21.33,10.26C261.69,81.34,265,85.66,271.77,85.66Z" transform="translate(-7.81 -26.08)"/><path class="cls-3" d="M305.88,44.53h6v6.75c0,2-.18,3.6-.18,3.6h.18A19.27,19.27,0,0,1,330,43.45c11.16,0,15.12,6.39,15.12,17.55V89.8H339V62.62c0-7.11-1.08-13.41-9.81-13.41A17.21,17.21,0,0,0,312.72,62a22.38,22.38,0,0,0-.72,6.12V89.8h-6.12Z" transform="translate(-7.81 -26.08)"/><path class="cls-3" d="M361.05,50.2h-5.67V45.07h5.67V42.91c0-14.94,10.53-16.83,15.66-16.83a18.74,18.74,0,0,1,2.79.18v5.49a12.17,12.17,0,0,0-2.16-.18c-3.51,0-10.17,1.26-10.17,11.34v2.16h11.61V50.2H367.17V89.8h-6.12Z" transform="translate(-7.81 -26.08)"/><path class="cls-3" d="M408,43.45c13.23,0,23.94,10.08,23.94,23.49a23.94,23.94,0,1,1-47.87,0C384.09,53.53,394.8,43.45,408,43.45Zm0,41.94c9.72,0,17.64-7.92,17.64-18.45a17.64,17.64,0,1,0-35.27,0C390.39,77.47,398.31,85.39,408,85.39Z" transform="translate(-7.81 -26.08)"/><path class="cls-3" d="M443.4,44.53h6v8c0,2-.18,3.6-.18,3.6h.18c2.16-6.84,7.2-12.06,14.3-12.06a12.24,12.24,0,0,1,2.43.27v6a15.49,15.49,0,0,0-2.25-.18c-6.39,0-11.15,5-13.13,11.7a29.86,29.86,0,0,0-1.26,8.82V89.8H443.4Z" transform="translate(-7.81 -26.08)"/><path class="cls-3" d="M492.44,43.45c11,0,14.76,8.55,14.76,8.55h.18a32.66,32.66,0,0,1-.18-3.42v-22h6.12V89.8h-5.94V85a25.32,25.32,0,0,1,.18-3.24h-.18s-3.69,9.09-15.57,9.09c-12.15,0-19.7-9.72-19.7-23.76C472.11,52.81,480.56,43.45,492.44,43.45Zm.27,41.94c7.56,0,14.67-5.4,14.67-18.27,0-9.18-4.68-18.18-14.4-18.18-8,0-14.58,6.75-14.58,18.18C478.4,78.28,484.25,85.39,492.71,85.39Z" transform="translate(-7.81 -26.08)"/></g></g></svg>