<svg id="Layer_1" data-name="Layer 1" xmlns="http://www.w3.org/2000/svg" viewBox="0 0 185.9 39.5"><title>logo-opendoor-white</title><g id="Page-1"><g id="Homepage-1"><g id="Header"><g id="Logo"><path id="Fill-1" d="M19.6,17.6c0-9.4-1.6-13.4-6-13.4-3.9,0-5.9,2.7-5.9,12.3,0,9.4,1.5,13.3,6,13.3,4-.1,5.9-2.8,5.9-12.2M0,17.3C0,6.7,7.3,2.5,13.8,2.5c6.9,0,13.5,4.2,13.5,14.2,0,10.7-7.3,14.8-13.8,14.8C6.5,31.4,0,27,0,17.3" transform="translate(0 -0.3)" style="fill:#1c85e8"/><path id="Fill-19" d="M39.9,29.8a3.94,3.94,0,0,1-3.2-1.5V13.7A9.08,9.08,0,0,1,40,13c3.1,0,4.8,2,4.8,7.8,0,7.3-1.7,9-4.9,9M43.5,9.4a10.3,10.3,0,0,0-6.8,2.8h-.2l.1-2.4a.43.43,0,0,0-.4-.4l-5.6.6a.32.32,0,0,0-.3.3V39.5c0,.2.2.3.4.3l5.8-.7a.32.32,0,0,0,.3-.3v-8a16.45,16.45,0,0,0,3.1.4c6.7,0,11.7-3.7,11.7-12.1-.2-7.1-4.3-9.7-8.1-9.7" transform="translate(0 -0.3)" style="fill:#1c85e8"/><path id="Fill-5" d="M60.1,18l6.9-.4c0-4.9-.6-6.7-3.1-6.7-2,.1-3.6,2-3.8,7.1m-6.4,2.4c0-7,5.2-10.9,10.5-10.9,5.5,0,9,2.7,9.1,9.8,0,.1-.1.3-.2.3H60.4c-.1,0-.3.1-.2.3.2,6.4,2.7,8.2,6.8,8.2A12.3,12.3,0,0,0,72,27a.37.37,0,0,1,.3.1l.5.6a.19.19,0,0,1,0,.3,11.77,11.77,0,0,1-8.4,3.5c-7.2-.1-10.7-4.3-10.7-11.1" transform="translate(0 -0.3)" style="fill:#1c85e8"/><path id="Fill-11" d="M90,9.4a13,13,0,0,0-7.7,2.9h-.2l.1-2.5c0-.2-.2-.3-.4-.3l-5.6.6a.32.32,0,0,0-.3.3V30.6a.27.27,0,0,0,.3.3H82a.27.27,0,0,0,.3-.3V13.7a17.54,17.54,0,0,1,3.8-.5c1.9,0,2.8.8,2.8,3.2V30.6a.27.27,0,0,0,.3.3H95a.27.27,0,0,0,.3-.3V14.9c0-3.7-1.9-5.5-5.3-5.5" transform="translate(0 -0.3)" style="fill:#1c85e8"/><path id="Fill-13" d="M112.6,27.4a8.38,8.38,0,0,1-3.4.9c-3.1,0-4.7-2.1-4.7-8.4,0-6.7,2-8.8,4.9-8.8a3.62,3.62,0,0,1,3.1,1.7V27.4ZM119,5.5c0-2.1.1-4,.1-4.8a.43.43,0,0,0-.4-.4l-5.8.7a.32.32,0,0,0-.3.3V6.9c0,1.5.1,2.9.1,2.9a13.74,13.74,0,0,0-3.1-.4c-6.3,0-11.7,3.3-11.7,11.7,0,7.3,3.9,10.2,7.9,10.2a10.16,10.16,0,0,0,6.8-2.6h.2l-.1,2.2a.43.43,0,0,0,.4.4l5.5-.6c.2,0,.3-.2.3-.4V5.5Z" transform="translate(0 -0.3)" style="fill:#1c85e8"/><path id="Fill-7" d="M136.8,20.7c0-8.1-1.6-9.7-4.3-9.7-2.5,0-4,1.9-4,8.8,0,8.3,1.3,10,4.3,10,2.3.1,4-1.4,4-9.1m-15.1-.2c0-7.7,5.5-11.1,10.9-11.1,5.8,0,11,3.5,11,10.9,0,7.7-5.4,11.1-11,11.1-5.9,0-10.9-3.5-10.9-10.9" transform="translate(0 -0.3)" style="fill:#1c85e8"/><path id="Fill-9" d="M160.8,20.7c0-8.1-1.6-9.7-4.3-9.7-2.5,0-4,1.9-4,8.8,0,8.3,1.3,10,4.3,10,2.4.1,4-1.4,4-9.1m-15.1-.2c0-7.7,5.5-11.1,10.9-11.1,5.8,0,11,3.5,11,10.9,0,7.7-5.4,11.1-11,11.1-5.8,0-10.9-3.5-10.9-10.9" transform="translate(0 -0.3)" style="fill:#1c85e8"/><path id="Fill-16" d="M182.6,9.4c-2.3,0-4.6,1.8-5.9,3.1h-.2l.1-2.7a.43.43,0,0,0-.4-.4l-5.6.6a.32.32,0,0,0-.3.3V30.5a.43.43,0,0,0,.4.4h5.7a.43.43,0,0,0,.4-.4V14.2a4,4,0,0,1,2.2-1,.75.75,0,0,1,.8.5c.8,1.3,1.4,2,3.1,2a3,3,0,0,0,3-3.2,3,3,0,0,0-3.3-3.1" transform="translate(0 -0.3)" style="fill:#1c85e8"/></g></g></g></g></svg>
